HIERARCHY
ROOT Hips
{
	OFFSET 0.000000 0.000000 0.000000
	CHANNELS 6 Xposition Yposition Zposition Zrotation Yrotation Xrotation 
	JOINT LHipJoint
	{
		OFFSET 0.000000 0.000000 0.000000
		CHANNELS 3 Zrotation Yrotation Xrotation
		JOINT LeftUpLeg
		{
			OFFSET 1.363060 -1.794630 0.839290
			CHANNELS 3 Zrotation Yrotation Xrotation
			JOINT LeftLeg
			{
				OFFSET 2.448110 -6.726130 0.000000
				CHANNELS 3 Zrotation Yrotation Xrotation
				JOINT LeftFoot
				{
					OFFSET 2.562200 -7.039590 0.000000
					CHANNELS 3 Zrotation Yrotation Xrotation
					JOINT LeftToeBase
					{
						OFFSET 0.157640 -0.433110 2.322550
						CHANNELS 3 Zrotation Yrotation Xrotation
						End Site
						{
							OFFSET 0.000000 0.000000 0.000000
						}
					}
				}
			}
		}
	}
	JOINT RHipJoint
	{
		OFFSET 0.000000 0.000000 0.000000
		CHANNELS 3 Zrotation Yrotation Xrotation
		JOINT RightUpLeg
		{
			OFFSET -1.305520 -1.794630 0.839290
			CHANNELS 3 Zrotation Yrotation Xrotation
			JOINT RightLeg
			{
				OFFSET -2.542530 -6.985550 0.000000
				CHANNELS 3 Zrotation Yrotation Xrotation
				JOINT RightFoot
				{
					OFFSET -2.568260 -7.056230 0.000000
					CHANNELS 3 Zrotation Yrotation Xrotation
					JOINT RightToeBase
					{
						OFFSET -0.164730 -0.452590 2.363150
						CHANNELS 3 Zrotation Yrotation Xrotation
						End Site
						{
							OFFSET 0.000000 0.000000 0.000000
						}
					}
				}
			}
		}
	}
	JOINT LowerBack
	{
		OFFSET 0.000000 0.000000 0.000000
		CHANNELS 3 Zrotation Yrotation Xrotation
		JOINT Spine
		{
			OFFSET 0.028270 2.035590 -0.193380
			CHANNELS 3 Zrotation Yrotation Xrotation
			JOINT Spine1
			{
				OFFSET 0.056720 2.048850 -0.042750
				CHANNELS 3 Zrotation Yrotation Xrotation
				JOINT Neck
				{
					OFFSET 0.000000 0.000000 0.000000
					CHANNELS 3 Zrotation Yrotation Xrotation
					JOINT Neck1
					{
						OFFSET -0.054170 1.746240 0.172020
						CHANNELS 3 Zrotation Yrotation Xrotation
						JOINT Head
						{
							OFFSET 0.104070 1.761360 -0.123970
							CHANNELS 3 Zrotation Yrotation Xrotation
							End Site
							{
								OFFSET 0.000000 0.000000 0.000000
							}
						}
					}
				}
				JOINT LeftShoulder
				{
					OFFSET 0.000000 0.000000 0.000000
					CHANNELS 3 Zrotation Yrotation Xrotation
					JOINT LeftArm
					{
						OFFSET 3.362410 1.200890 -0.311210
						CHANNELS 3 Zrotation Yrotation Xrotation
						JOINT LeftForeArm
						{
							OFFSET 4.983000 -0.000000 -0.000000
							CHANNELS 3 Zrotation Yrotation Xrotation
							JOINT LeftHand
							{
								OFFSET 3.483560 -0.000000 -0.000000
								CHANNELS 3 Zrotation Yrotation Xrotation
								JOINT LeftFingerBase
								{
									OFFSET 0.000000 0.000000 0.000000
									CHANNELS 3 Zrotation Yrotation Xrotation
									JOINT LeftHandIndex1
									{
										OFFSET 0.715260 -0.000000 -0.000000
										CHANNELS 3 Zrotation Yrotation Xrotation
										End Site
										{
											OFFSET 0.000000 0.000000 0.000000
										}
									}
								}
								JOINT LThumb
								{
									OFFSET 0.000000 0.000000 0.000000
									CHANNELS 3 Zrotation Yrotation Xrotation
									End Site
									{
										OFFSET 0.000000 0.000000 0.000000
									}
								}
							}
						}
					}
				}
				JOINT RightShoulder
				{
					OFFSET 0.000000 0.000000 0.000000
					CHANNELS 3 Zrotation Yrotation Xrotation
					JOINT RightArm
					{
						OFFSET -3.136600 1.374050 -0.404650
						CHANNELS 3 Zrotation Yrotation Xrotation
						JOINT RightForeArm
						{
							OFFSET -5.241900 -0.000000 -0.000000
							CHANNELS 3 Zrotation Yrotation Xrotation
							JOINT RightHand
							{
								OFFSET -3.444170 -0.000000 -0.000000
								CHANNELS 3 Zrotation Yrotation Xrotation
								JOINT RightFingerBase
								{
									OFFSET 0.000000 0.000000 0.000000
									CHANNELS 3 Zrotation Yrotation Xrotation
									JOINT RightHandIndex1
									{
										OFFSET -0.622530 -0.000000 -0.000000
										CHANNELS 3 Zrotation Yrotation Xrotation
										End Site
										{
											OFFSET 0.000000 0.000000 0.000000
										}
									}
								}
								JOINT RThumb
								{
									OFFSET 0.000000 0.000000 0.000000
									CHANNELS 3 Zrotation Yrotation Xrotation
									End Site
									{
										OFFSET 0.000000 0.000000 0.000000
									}
								}
							}
						}
					}
				}
			}
		}
	}
}
MOTION
Frames: 5
Frame Time: 0.008333
-0.507506 18.074605 48.606463 -178.783633 0.646482 178.228132 1.998233 5.743877 4.557388 -18.397586 -15.994718 -4.284450 0.985281 6.471455 24.468134 -0.021820 0.678691 -2.624440 0.106100 -2.099900 -5.781900 -2.073558 -5.836655 4.498982 24.032850 9.436896 -8.635025 -2.847511 -8.617882 30.832469 2.121255 -10.728160 -10.616442 -0.355900 -3.832900 10.607000 -4.690759 -1.385879 8.208332 7.091302 -3.378576 13.409983 6.178212 -0.703390 -14.002260 -2.507682 -4.523476 -9.324917 -5.501821 2.372778 38.204447 -1.211600 1.987400 13.002700 -1.634149 1.190442 -0.606270 -87.406794 17.488980 17.470210 31.296485 -39.902150 -10.841254 0.345340 0.041106 -8.124075 14.302901 51.911371 11.084200 -7.125000 0.000000 0.000000 -62.176700 76.169400 -48.982900 -0.937208 0.043769 -0.218131 53.516930 10.831576 -61.108039 -54.099819 56.982777 -25.361662 0.445151 -0.670426 -69.676002 -14.721527 -9.452014 2.224300 7.125000 0.000000 0.000000 10.927600 -38.831000 1.684400 
-0.500706 18.072240 48.594046 -178.803455 0.521992 178.273698 2.028922 5.718176 4.521259 -18.432724 -15.994035 -4.327093 1.010516 6.508667 24.596138 0.012853 0.542808 -2.682779 0.111100 -2.149200 -5.918100 -2.047496 -5.844065 4.486195 23.989478 9.185054 -8.743804 -2.849123 -8.635038 30.853039 2.105877 -10.674780 -10.592014 -0.344200 -3.769600 10.429300 -5.101853 -1.635715 8.021609 7.477596 -3.787023 12.902930 6.579336 -0.870184 -13.974106 -3.089841 -4.316506 -7.539523 -5.533171 2.746501 37.543927 -1.082800 2.165900 12.428300 -1.670450 1.166407 -0.606004 -87.996150 18.522083 16.751977 31.666760 -40.189404 -11.073337 0.339996 0.032189 -8.292677 14.358554 52.521696 11.225500 -7.125000 0.000000 0.000000 -64.585200 76.402100 -51.397000 -0.931318 0.038339 -0.205046 53.222005 10.626537 -60.193845 -54.338838 57.042283 -25.508948 0.442684 -0.652115 -68.992441 -14.179767 -9.570399 2.169700 7.125000 0.000000 0.000000 11.391000 -38.915600 1.733900 
-0.494892 18.067510 48.581432 -178.802044 0.376125 178.311294 2.036512 5.710036 4.494283 -18.435115 -16.018070 -4.323411 1.014832 6.521572 24.625469 0.007391 0.572025 -2.702594 0.155200 -2.538100 -6.995300 -2.043675 -5.835526 4.459788 24.005546 8.956819 -8.836002 -2.866490 -8.669197 30.955416 2.077614 -10.616833 -10.753841 -0.359000 -3.849300 10.653100 -5.168984 -1.612519 8.667722 7.614690 -3.769800 12.412767 6.718006 -0.816150 -14.584333 -3.093385 -4.405103 -7.708035 -5.637884 2.776635 37.947025 -1.098700 2.181100 12.591400 -1.691294 1.207349 -0.585261 -88.051743 18.954820 16.933399 31.784771 -40.288546 -11.151692 0.340049 0.032832 -8.245931 14.810021 53.025595 11.668500 -7.125000 0.000000 0.000000 -66.473200 76.729100 -53.467400 -0.932893 0.041950 -0.185926 53.069948 10.034657 -60.028090 -54.702851 57.168592 -25.759351 0.435938 -0.629362 -68.482548 -13.644659 -9.486402 2.069100 7.125000 0.000000 0.000000 11.809700 -38.804300 1.832600 
-0.482279 18.059823 48.568326 -178.851653 0.299939 178.296150 2.029237 5.718264 4.513580 -18.436421 -16.057948 -4.281345 1.022924 6.531126 24.663095 0.036213 0.455093 -2.730776 0.125200 -2.281300 -6.283600 -2.055187 -5.837991 4.472534 24.039399 8.985342 -8.797394 -2.881929 -8.688394 31.036962 2.115201 -10.799408 -10.956714 -0.349500 -3.798300 10.510000 -5.083065 -1.686648 8.317942 7.387006 -3.845195 12.681213 6.589940 -0.886558 -14.257379 -2.973934 -4.357726 -7.589994 -5.562139 2.708084 37.684438 -1.110600 2.162200 12.473900 -1.672584 1.180654 -0.595981 -87.829453 18.660244 16.863201 31.686664 -40.203795 -11.076714 0.335937 0.037128 -8.104444 14.668324 53.264653 11.589200 -7.125000 0.000000 0.000000 -67.484400 76.737700 -54.407400 -0.906953 0.048458 -0.202365 53.262763 10.043698 -60.144167 -55.166028 57.320335 -26.089400 0.441751 -0.603999 -68.055043 -13.224135 -9.679636 2.049600 7.125000 0.000000 0.000000 12.179700 -38.969500 1.841700 
-0.472030 18.053221 48.556796 -178.906711 0.222145 178.208287 2.027472 5.723496 4.527684 -18.473829 -16.052488 -4.177495 1.028002 6.531230 24.681045 0.054875 0.375215 -2.746962 0.129900 -2.323600 -6.400900 -2.061644 -5.844744 4.484719 24.040417 8.983524 -8.700492 -2.898907 -8.711452 31.129256 2.108103 -10.824060 -11.166132 -0.372500 -3.920200 10.852100 -5.101322 -1.783722 8.189272 7.266615 -3.976520 12.893492 6.586059 -0.961568 -14.063674 -2.887093 -4.265112 -7.401552 -5.558745 2.719832 37.346940 -1.131400 2.166000 12.318300 -1.661369 1.164789 -0.607241 -87.840471 18.553173 16.554096 31.738939 -40.255849 -11.109768 0.336471 0.036232 -8.129598 14.800412 52.923220 11.646900 -7.125000 0.000000 0.000000 -66.027000 76.695800 -53.023000 -0.894551 0.048018 -0.214609 53.289861 10.075368 -60.016327 -55.464853 57.412601 -26.294211 0.429564 -0.584748 -67.569603 -12.800046 -9.487638 1.944400 7.125000 0.000000 0.000000 12.486600 -38.763000 1.954400 
